<svg width="104" height="100" viewBox="0 0 104 100" fill="none" xmlns="http://www.w3.org/2000/svg">
<path d="M53.7311 1.54045C53.3606 3.48564 53.5921 12.7484 54.0553 13.1653C54.2405 13.3505 54.5647 13.3505 54.8426 13.1653C55.3984 12.8411 55.5836 2.00359 55.0742 0.706803C54.611 -0.49736 54.009 -0.126848 53.7311 1.54045Z" fill="#39D4D6"/>
<path d="M79.8513 9.54637C77.9525 11.5379 74.34 17.2345 74.34 18.1145C74.34 20.1523 76.2388 18.1145 79.7124 12.3252C81.6576 9.17586 81.7039 7.50856 79.8513 9.54637Z" fill="#39D4D6"/>
<path d="M27.563 17.1909C27.563 18.2098 36.6406 26.8242 37.7058 26.8242C39.1878 26.8242 38.4931 25.8516 33.4449 20.896C29.4156 16.9593 27.563 15.8015 27.563 17.1909Z" fill="#39D4D6"/>
<path d="M58.5002 25.9038C55.3509 29.2384 50.951 34.6572 48.8206 37.9455L48.0796 39.057L39.0946 37.5749C28.1645 35.7687 22.2363 35.3055 20.6153 36.1855C19.1796 36.9265 18.8554 38.9644 19.9206 40.539C20.8469 41.9748 26.5899 46.5136 31.9623 50.1261C34.2317 51.6544 36.3158 53.0438 36.5474 53.2754C36.7789 53.4607 35.6211 55.128 33.9538 57.0269C27.7014 64.0666 23.3942 70.4116 23.3942 72.5884C23.3942 73.0515 23.6258 73.6536 23.95 73.9778C25.2931 75.3209 28.3961 74.3946 40.3451 69.2075C44.6986 67.3086 48.589 65.7339 49.0522 65.7339C49.469 65.7339 50.8121 66.7991 52.0163 68.1422C58.8707 75.6451 66.0494 81.7586 68.5967 82.2217C72.1629 82.8701 72.3018 81.1102 69.6619 70.7358C67.4851 62.3067 67.3925 62.8624 71.746 61.3341C75.0343 60.1762 80.6846 57.3047 83.0467 55.5911C84.5287 54.4796 84.9919 53.8312 84.9919 52.8123C84.9919 50.9597 83.834 50.3113 77.0258 48.3661C66.4199 45.2631 65.6789 44.9852 65.1231 43.5958C64.7989 42.8084 64.66 39.0107 64.7063 32.9435C64.8452 24.0975 64.7989 23.4955 63.9653 22.8471C63.4558 22.4766 62.8074 22.1987 62.5759 22.1987C62.298 22.1987 60.4454 23.866 58.5002 25.9038ZM62.298 35.5834V44.7999L63.5021 46.2357C64.7063 47.7177 67.0683 48.5514 77.5353 51.4692C79.712 52.0712 81.5183 52.766 81.6109 53.0438C81.7036 53.3217 79.3415 54.7575 76.3311 56.1932C73.3207 57.6752 69.7082 59.4352 68.3188 60.0836C64.8916 61.7972 64.7526 62.5845 66.5589 69.3927C68.7356 77.7292 68.9672 78.7018 68.643 78.9797C68.0872 79.5355 65.9105 77.7292 59.0097 71.0137C55.2582 67.4012 51.6457 64.0666 50.9974 63.6035C49.2374 62.4919 47.8017 62.8624 38.3536 66.8454C29.9245 70.3653 27.5625 71.199 27.5625 70.5969C27.5625 69.8095 31.2676 64.8076 35.4822 59.9446C38.4926 56.4711 40.0672 54.2943 40.0672 53.5533C40.0672 52.2102 38.8168 51.0523 32.4254 46.6062C29.6466 44.6147 26.312 42.1137 25.0152 40.9559L22.6995 38.918L25.1541 38.8717C26.4972 38.8717 32.1012 39.6128 37.5663 40.539C43.0313 41.4653 47.8017 42.0674 48.1722 41.9285C48.4964 41.8358 51.6921 38.2697 55.2119 34.0551C58.7318 29.7942 61.7422 26.3669 61.9275 26.3669C62.159 26.3669 62.298 30.5352 62.298 35.5834Z" fill="#39D4D6"/>
<path d="M86.8449 31.5056C80.222 35.2107 79.3421 35.9054 80.4999 36.3686C81.6115 36.7854 94.2552 29.6993 94.2552 28.6804C94.2552 27.6615 92.4026 28.4025 86.8449 31.5056Z" fill="#39D4D6"/>
<path d="M0.0527786 31.1272C0.330663 31.9145 9.31559 35.6196 10.7976 35.6196C13.0207 35.6196 11.446 34.4155 6.67569 32.5166C1.67377 30.4788 -0.364048 30.0619 0.0527786 31.1272Z" fill="#39D4D6"/>
<path d="M14.1323 55.7216C9.03772 57.6668 7.50935 58.4078 7.27778 59.1025C7.18515 59.473 7.46304 59.7046 7.97249 59.7046C9.3156 59.6583 19.3658 55.3511 19.5974 54.7027C19.8752 53.8227 18.3469 54.0543 14.1323 55.7216Z" fill="#39D4D6"/>
<path d="M90.9202 55.4C90.4571 55.4926 90.0865 55.7705 90.0865 56.002C90.0865 56.7431 93.1433 57.3451 98.562 57.6693C103.24 57.9472 103.981 57.9009 103.981 57.2525C103.981 56.5115 102.777 56.1873 97.7284 55.7705C95.9684 55.6315 93.8843 55.4463 93.097 55.3536C92.3559 55.261 91.337 55.261 90.9202 55.4Z" fill="#39D4D6"/>
<path d="M81.751 72.1604C81.751 73.0866 91.7548 81.4695 92.82 81.4695C93.0979 81.4695 93.3295 81.2842 93.3295 81.099C93.3295 80.5432 89.8096 77.2549 86.1508 74.3371C83.0941 71.8825 81.751 71.2341 81.751 72.1604Z" fill="#39D4D6"/>
<path d="M17.8381 79.4824C16.3561 80.455 11.2152 84.8085 10.7984 85.4106C10.3353 86.0127 10.3353 87.0316 10.7984 87.0316C11.5394 87.0316 19.6907 80.0382 19.6907 79.3898C19.6907 78.5098 19.2276 78.5098 17.8381 79.4824Z" fill="#39D4D6"/>
<path d="M46.4584 88.7524C46.3194 95.8384 46.7363 98.6173 47.8015 97.552C48.8667 96.4405 48.3572 84.723 47.1994 84.723C46.6899 84.723 46.551 85.6493 46.4584 88.7524Z" fill="#39D4D6"/>
<path d="M71.8391 86.9858C71.6539 87.2636 72.6728 89.9035 74.1085 92.914C76.6095 98.1474 77.7673 100 78.601 100C79.4346 100 78.8789 98.3327 76.3779 93.3771C73.6917 87.9584 72.3486 86.1058 71.8391 86.9858Z" fill="#39D4D6"/>
</svg>
