<svg width="67" height="100" viewBox="0 0 67 100" fill="none" xmlns="http://www.w3.org/2000/svg">
<g clip-path="url(#clip0_306_409)">
<path d="M10.9803 83.9653C14.633 88.536 18.0325 93.5086 22.0106 97.7868C22.0106 97.8233 22.0468 97.86 22.0829 97.8964C22.9147 98.8106 24.2529 100.31 25.5909 99.9442C26.4227 99.7246 27.1822 98.8106 27.8331 98.2986C28.918 97.4942 30.0391 96.6897 31.1965 95.922C34.1982 93.9475 37.4169 92.3022 40.8525 91.4611C40.9609 91.4611 41.0334 91.4611 41.1418 91.4611C42.5885 91.5342 43.9627 92.0462 45.3731 92.1557C46.458 92.2291 47.1814 91.7537 47.2898 90.6566C49.4958 87.6951 51.4127 84.6602 54.0887 82.064C55.5716 80.638 57.1627 79.3582 58.8265 78.2248C58.8625 78.2248 58.8625 78.1882 58.8987 78.1882C61.0325 76.872 63.3109 75.8115 65.6616 75.0071C66.1316 74.8242 66.4572 74.1295 65.9869 73.764C65.2276 73.1422 64.5043 72.4475 63.7087 71.9357C63.7809 71.8991 63.8172 71.8991 63.8894 71.8626C64.0703 71.7893 64.1427 71.6431 64.1427 71.4968C64.2149 71.4237 64.2512 71.3506 64.2512 71.2408C64.5767 71.1677 64.8298 70.8022 64.6127 70.4C64.4681 70.1806 64.3234 69.9246 64.1787 69.7053H64.2149C64.4321 69.7053 64.468 69.4126 64.3234 69.3031C64.1787 69.1933 63.9981 69.1568 63.8172 69.1202C63.4916 68.6082 63.1663 68.0597 62.8769 67.548C62.5514 66.6704 62.0089 65.866 61.5025 65.0615C60.526 63.4893 59.4774 61.9902 58.4285 60.4908C56.2587 57.4195 54.1249 54.3846 51.9552 51.3133C50.0383 48.6075 48.3025 45.3897 45.9878 43.0131C44.8667 41.8431 42.95 41.3677 41.9014 42.684C39.2611 43.3789 36.8383 44.4757 34.7767 46.3771C33.9811 47.1084 33.0771 47.986 32.1729 48.9366C29.4967 51.5326 27.1822 54.7504 26.0611 58.2606C22.7338 56.3591 18.2495 56.542 14.6691 57.3464C9.71456 58.48 5.30245 61.1126 0.998843 63.7086C0.528701 64.0011 0.492536 64.5862 0.818018 64.9884C1.50515 65.7928 2.15612 66.5606 2.80709 67.3651C1.72214 67.8404 0.998843 68.5717 0.167051 69.5224C0.0223916 69.7053 -0.0861018 69.9977 0.0947223 70.2171C3.63887 74.8608 7.36385 79.3948 10.9803 83.9653ZM33.8727 92.4484C31.8836 93.5086 30.0031 94.7153 28.2309 96.0682C27.5076 96.5802 26.5311 97.6406 25.7356 98.0062C25.1931 98.2255 24.7229 98.1891 24.2529 98.0426C24.2529 98.0426 24.2529 98.0426 24.2889 98.0062C24.4698 97.7868 24.4698 97.5308 24.2889 97.3115C24.2889 97.3115 24.2889 97.3115 24.2529 97.2748C24.5782 97.2017 24.8676 96.9824 25.0485 96.6533C25.374 96.3242 25.6634 96.0317 26.0249 95.7391C26.8205 95.0444 27.6885 94.4595 28.5927 93.9108C30.1838 92.9602 31.9198 92.2291 33.6556 91.6073C36.7658 90.474 40.3463 88.9746 43.7456 89.3037C43.818 89.3037 43.8543 89.3404 43.9265 89.3404C40.3823 89.6328 37.0551 90.8028 33.8727 92.4484ZM42.9863 91.0588C43.8543 90.9493 44.7583 90.8762 45.6625 90.8762C45.7347 90.9857 45.9156 91.0588 46.024 91.0588C45.3007 91.388 44.0349 91.2417 42.9863 91.0588ZM47.0367 90.2911C46.9643 90.2544 46.892 90.2544 46.7836 90.2911C47.0005 90.0351 47.1814 89.7791 47.3983 89.5233C47.2898 89.7791 47.1814 90.0351 47.0367 90.2911ZM63.9618 74.0197C60.2369 75.4824 56.8012 77.53 53.7272 80.1262C52.1358 81.4791 50.4723 83.0513 49.0258 84.7697C49.1705 84.514 49.3152 84.258 49.4598 84.0386C50.6169 82.1737 51.9189 80.4186 53.3656 78.8097C55.9332 75.9577 58.8625 73.8004 62.2983 72.4111C62.7683 73.0326 63.3469 73.5444 63.9618 74.0197ZM63.0216 71.2775C62.8769 71.314 62.7323 71.3506 62.6236 71.3873C62.4792 71.3873 62.3705 71.4237 62.2983 71.4968C58.7178 72.7035 55.6078 75.2264 53.0763 77.9688C50.7254 80.4917 47.796 84.0386 46.6749 87.5486C46.6027 87.4391 46.5303 87.3293 46.458 87.2197C46.9283 85.428 48.3387 83.4168 49.098 82.2102C50.2916 80.3455 51.6296 78.5904 53.1847 76.9815C54.6314 75.4824 56.2225 74.0931 57.9223 72.8864C59.0434 72.1184 60.7432 70.7655 62.3345 70.1075C62.5876 70.5097 62.8045 70.8753 63.0216 71.2775ZM33.5834 49.4851C34.162 48.8635 34.7407 48.2053 35.3554 47.5837C36.9829 46.3404 38.7549 45.2802 40.6716 44.4757C41.3949 44.1466 42.2267 43.8175 43.0947 43.5251C43.384 43.452 43.6734 43.4153 43.9627 43.3422C43.9265 43.3055 43.9265 43.2691 43.8903 43.2691C45.8794 44.11 47.8685 48.0224 48.7365 49.2657C50.4 51.6057 52.0274 53.9824 53.6909 56.3226C55.2098 58.5164 56.7649 60.6737 58.2838 62.8677C58.32 62.9042 58.32 62.9408 58.3563 62.9773C59.5136 65.2077 60.7432 67.4017 62.0089 69.5588C60.8516 70.1075 59.6583 71.0215 59.0072 71.4604C56.6565 72.9595 54.4505 74.7877 52.5698 76.872C50.7256 78.8464 49.1343 81.0768 47.8323 83.4535C47.326 84.4042 46.5665 85.6109 46.2049 86.8175C45.3731 85.4646 44.5051 84.1482 43.6734 82.832C41.7927 79.9066 39.876 77.0546 37.9231 74.2026C36.0425 71.4604 34.1258 68.7546 32.1729 66.0853C30.6178 63.9646 29.0627 61.4051 27.1822 59.4306C28.4118 55.5182 30.9071 52.4833 33.5834 49.4851ZM26.4951 59.7962C27.7969 62.0266 29.7138 64.1108 31.1965 66.1584C33.0047 68.6082 34.7407 71.0946 36.4765 73.6175C38.2125 76.1406 39.9123 78.6635 41.5758 81.1864C42.3351 82.3566 43.0947 83.5266 43.818 84.6602C44.252 85.3548 44.722 86.0495 45.156 86.7808C45.3007 87.0002 45.4454 87.2562 45.59 87.4755C45.59 87.5486 45.6263 87.5853 45.6263 87.6217C42.3351 82.7588 38.7911 78.042 35.3554 73.2155C32.1007 68.6448 28.9542 63.928 25.5187 59.4671C25.844 59.6135 26.1696 59.6866 26.4951 59.7962ZM2.62627 64.6228C6.24274 62.4655 9.96772 60.3082 14.0543 59.1746C17.8878 58.1142 21.2512 58.4068 24.8676 59.3575C28.1225 64.3302 31.7027 69.0835 35.1385 73.9102C38.538 78.7002 41.8651 83.6364 45.4091 88.3531C38.4294 85.0624 29.4605 87.2929 23.7827 92.2291C17.2007 82.6491 10.1124 73.4713 2.62627 64.6228ZM2.4816 68.6082C2.69858 68.3157 2.95174 68.0597 3.16874 67.7673C10.1485 76.1406 16.7667 84.8428 22.9509 93.8377C23.2402 94.2766 23.8189 94.3862 24.2167 94.0206C26.9651 91.388 30.3647 89.5964 34.0896 88.8284C36.2596 88.3897 38.3209 88.3897 40.3823 88.6457C40.1291 88.6822 39.876 88.7553 39.6229 88.792C37.0914 89.3769 34.5598 90.1813 32.1367 91.132C30.0391 91.9731 27.9778 92.9602 26.1696 94.3131C25.374 94.8982 23.5658 96.0682 23.204 97.2384C19.6599 92.0462 15.2478 87.2562 11.342 82.3566C9.35292 79.8702 7.36385 77.3837 5.33863 74.8973C4.28985 73.6175 2.84325 72.3013 2.04762 70.8386L1.50515 70.144C1.64981 69.4857 1.93913 68.974 2.4816 68.6082Z" fill="#674CEF"/>
<path d="M29.9878 41.6653C33.2891 39.014 36.4253 36.202 39.4378 33.2293C39.5615 33.1489 39.6853 33.0284 39.8091 32.8678C43.0693 27.8062 45.8753 22.4633 48.5165 17.0803C49.7958 14.4691 50.9511 11.7776 52.2305 9.12626C52.3956 8.76473 53.5509 7.43904 53.7574 6.59544C53.9636 6.47493 54.0874 6.31424 54.0462 6.07322C53.9636 5.47064 53.6747 4.9484 53.262 4.46633C52.8907 2.65862 51.1576 1.01157 49.4656 0.408995C47.6911 -0.233751 45.6278 -0.113238 43.9358 0.730369C43.358 0.810713 42.8216 1.05174 42.4916 1.49363C42.4502 1.5338 42.4916 1.61415 42.4916 1.65432C41.2536 2.89964 40.5933 4.6672 39.8091 6.19373C38.6124 8.52368 37.4982 10.8938 36.384 13.3041C34.2382 17.9641 32.1335 22.6642 29.4513 27.0429C29.2862 27.284 29.2862 27.5249 29.3686 27.7258C29.2449 27.8062 29.1211 27.9267 29.0798 28.1678C29.0386 28.3284 29.08 28.4891 29.1211 28.6095C29.08 28.8104 29.0386 28.9711 29.0798 29.172C29.1211 29.3729 29.1624 29.5738 29.2449 29.7744C28.9973 30.6984 28.9973 31.7831 28.8735 32.7071C28.5022 35.4789 28.3784 38.2509 28.3784 41.0226C28.4195 41.826 29.41 42.1475 29.9878 41.6653ZM49.7131 4.18513C50.2085 4.46633 50.6622 4.82789 51.1162 5.18944C51.3638 5.39029 51.5289 5.55098 51.7351 5.75184C51.7765 5.87235 51.8178 5.99286 51.8178 6.11337C51.8178 6.15355 51.8591 6.19373 51.9002 6.27406C50.7449 7.35871 50.2496 8.84506 49.5893 10.2912C48.4338 12.8221 47.2371 15.3127 45.958 17.7632C43.6469 22.3027 41.0884 26.6813 38.53 31.1002C38.0347 30.6984 37.4982 30.2969 36.9204 29.9353C36.9618 29.8951 36.9618 29.8549 37.0031 29.8147C39.5615 25.7975 41.8724 21.6599 43.8533 17.3213C44.72 15.3931 45.5453 13.4648 46.288 11.4964C47.2785 9.04593 47.98 6.35442 49.7131 4.18513ZM37.9109 14.1879C38.9013 11.9383 39.9329 9.68866 41.006 7.43904C41.7487 5.87235 42.8629 4.22531 43.2756 2.49793C43.4407 2.41758 43.6058 2.37742 43.7709 2.29707C43.9358 2.33724 44.1009 2.33724 44.266 2.3774C45.504 2.57827 46.7007 2.81931 47.8562 3.30135C48.2689 3.46204 48.6816 3.66291 49.0942 3.90393C47.8973 5.43046 47.2371 7.11769 46.5769 8.9254C45.5453 11.6571 44.4311 14.3888 43.1931 17.0401C42.12 19.3299 40.9647 21.5795 39.768 23.7889C39.1075 24.954 38.4473 26.1189 37.7458 27.2438C37.3744 27.8864 36.9618 28.4891 36.5491 29.1318C36.4253 29.2924 36.3429 29.4531 36.2602 29.5738C34.7333 28.6498 33.0002 27.8462 31.3909 27.324C33.908 23.0658 35.9302 18.647 37.9109 14.1879ZM30.7304 28.2078C31.3495 28.5293 32.0098 28.8104 32.67 29.1318C32.0924 28.9309 31.5146 28.7702 30.9369 28.6498C30.8544 28.5293 30.7718 28.3684 30.7304 28.2078C30.7304 28.248 30.6893 28.248 30.7304 28.2078ZM30.648 33.1489C30.7718 31.9035 31.2671 30.4575 31.0606 29.2122C32.2986 29.654 33.4129 30.2164 34.4858 30.8191C34.6509 31.0198 34.8984 31.1807 35.146 31.2207C35.8889 31.6627 36.5904 32.1446 37.3331 32.7071C36.054 33.9122 34.7747 35.0773 33.4953 36.2422C32.9178 35.238 31.6798 34.6353 30.4829 34.6353C30.5655 34.1533 30.6066 33.6311 30.648 33.1489Z" fill="#674CEF"/>
</g>
<defs>
<clipPath id="clip0_306_409">
<rect width="66.6667" height="100" fill="white"/>
</clipPath>
</defs>
</svg>
